<svg width="20" height="20" viewBox="0 0 20 20" fill="none" xmlns="http://www.w3.org/2000/svg">
<path d="M6.65402 16.5583H13.3463C14.696 16.5583 15.3929 15.8489 15.3929 14.4929V8.87416H10.6844C9.89969 8.87416 9.52302 8.49749 9.52302 7.71275V2.9541H6.65402C5.31055 2.9541 4.60742 3.6635 4.60742 5.02581V14.4929C4.60742 15.8489 5.31055 16.5583 6.65402 16.5583ZM10.8037 7.95759H15.3301C15.2924 7.66881 15.0852 7.39886 14.7588 7.06613L11.3248 3.58817C11.0109 3.268 10.7284 3.05455 10.4396 3.01688V7.59347C10.4459 7.83831 10.5652 7.95759 10.8037 7.95759ZM7.56431 11.6553C7.29436 11.6553 7.09975 11.4607 7.09975 11.2095C7.09975 10.9584 7.29436 10.7638 7.56431 10.7638H12.4548C12.7122 10.7638 12.9131 10.9584 12.9131 11.2095C12.9131 11.4607 12.7122 11.6553 12.4548 11.6553H7.56431ZM7.56431 14.0095C7.29436 14.0095 7.09975 13.8149 7.09975 13.5638C7.09975 13.3126 7.29436 13.118 7.56431 13.118H12.4548C12.7122 13.118 12.9131 13.3126 12.9131 13.5638C12.9131 13.8149 12.7122 14.0095 12.4548 14.0095H7.56431Z" fill="#0D1126" fill-opacity="0.4"/>
</svg>
