<svg width="24" height="24" viewBox="0 0 24 24" fill="none" xmlns="http://www.w3.org/2000/svg">
<path d="M12.0084 12.4946C12.3323 12.4946 12.6186 12.3439 12.9576 12.0049L19.5268 5.48842C19.233 5.22475 18.7132 5.09668 17.9824 5.09668H5.83092C5.18304 5.09668 4.72349 5.21722 4.45982 5.45829L11.0592 12.0049C11.3906 12.3439 11.6844 12.4946 12.0084 12.4946ZM3.73661 17.0523L9.15318 11.6885L3.74414 6.34724C3.60854 6.58831 3.5332 6.98758 3.5332 7.55259V15.8771C3.5332 16.427 3.601 16.8188 3.73661 17.0523ZM20.2651 17.0448C20.3931 16.8112 20.4609 16.4195 20.4609 15.8771V7.55259C20.4609 7.00265 20.3856 6.60338 20.25 6.36984L14.8636 11.6885L20.2651 17.0448ZM6.01172 18.333H18.1632C18.8262 18.333 19.2932 18.2049 19.5645 17.9563L14.0499 12.4795L13.5829 12.939C13.0631 13.4438 12.5658 13.6848 12.0084 13.6848C11.4509 13.6848 10.9461 13.4438 10.4263 12.939L9.95926 12.4795L4.45229 17.9413C4.75363 18.1974 5.28097 18.333 6.01172 18.333Z" fill="#0D1126" fill-opacity="0.4"/>
</svg>
