<svg width="20" height="20" viewBox="0 0 20 20" fill="none" xmlns="http://www.w3.org/2000/svg">
<path d="M8.95243 13.5953C9.95061 13.5953 10.886 13.2939 11.6645 12.7792L14.4142 15.5352C14.5963 15.7109 14.8285 15.7988 15.0797 15.7988C15.6007 15.7988 15.9837 15.3908 15.9837 14.876C15.9837 14.6374 15.9021 14.4051 15.7263 14.2294L12.9954 11.4859C13.5604 10.6823 13.8931 9.70926 13.8931 8.65458C13.8931 5.93624 11.6708 3.71387 8.95243 3.71387C6.24037 3.71387 4.01172 5.93624 4.01172 8.65458C4.01172 11.3729 6.2341 13.5953 8.95243 13.5953ZM8.95243 12.2769C6.96233 12.2769 5.33008 10.6447 5.33008 8.65458C5.33008 6.66448 6.96233 5.03223 8.95243 5.03223C10.9425 5.03223 12.5748 6.66448 12.5748 8.65458C12.5748 10.6447 10.9425 12.2769 8.95243 12.2769Z" fill="#14151A"/>
</svg>
