<svg width="20" height="20" viewBox="0 0 20 20" fill="none" xmlns="http://www.w3.org/2000/svg">
<path d="M15.1234 3.51951C14.8032 3.7518 11.3253 6.12484 9.15939 8.0396C10.641 8.523 11.7961 9.67186 12.2795 11.166C14.2005 8.99385 16.5736 5.52217 16.8059 5.19571C17.5969 4.07197 16.2158 2.72222 15.1234 3.51951ZM9.15311 11.166C9.63651 11.6494 9.98807 12.2772 10.0948 12.8234C10.5719 12.7355 10.9674 12.5157 11.3692 12.1265C11.4383 12.0637 11.501 12.001 11.5638 11.9319C11.3127 10.3436 9.96924 9.00012 8.39349 8.75529C8.32443 8.81179 8.25537 8.88084 8.19259 8.9499C7.80336 9.35169 7.57736 9.75975 7.50203 10.2369C8.03565 10.331 8.66972 10.6763 9.15311 11.166ZM3.18911 14.8574C4.33796 16.3767 6.72357 16.8287 8.22398 15.6924C9.4984 14.7381 9.71812 13.2879 8.80155 12.0763C7.97287 10.9777 6.55406 10.7077 5.61238 11.4359C4.60791 12.1956 5.0097 13.1687 4.41958 13.6081C3.91107 13.9973 3.48417 13.7462 3.15772 13.9911C2.90032 14.1857 2.9066 14.4996 3.18911 14.8574Z" fill="#0D1126" fill-opacity="0.4"/>
</svg>
