<svg width="20" height="20" viewBox="0 0 20 20" fill="none" xmlns="http://www.w3.org/2000/svg">
<g clip-path="url(#clip0_4324_19435)">
<path d="M10.0056 9.69657C11.3804 9.69657 12.5419 8.47866 12.5419 6.9029C12.5419 5.36482 11.3742 4.18457 10.0056 4.18457C8.637 4.18457 7.46931 5.38365 7.47559 6.91546C7.47559 8.47866 8.63072 9.69657 10.0056 9.69657ZM2.73577 9.84096C3.93485 9.84096 4.94559 8.77372 4.94559 7.40513C4.94559 6.06166 3.92857 5.03836 2.73577 5.03836C1.54925 5.03836 0.525949 6.0805 0.532227 7.41769C0.532227 8.77372 1.54297 9.84096 2.73577 9.84096ZM17.2566 9.84096C18.4494 9.84096 19.4601 8.77372 19.4601 7.41769C19.4664 6.0805 18.4431 5.03836 17.2566 5.03836C16.07 5.03836 15.0467 6.06166 15.0467 7.40513C15.0467 8.77372 16.0638 9.84096 17.2566 9.84096ZM-0.723354 15.5413H3.98507C3.31334 14.5808 4.04157 12.6848 5.46038 11.5674C4.76981 11.1217 3.86579 10.7952 2.73577 10.7952C-0.070452 10.7952 -1.88477 12.8606 -1.88477 14.5619C-1.88477 15.1835 -1.57087 15.5413 -0.723354 15.5413ZM20.7157 15.5413C21.5632 15.5413 21.8771 15.1835 21.8771 14.5619C21.8771 12.8606 20.0628 10.7952 17.2566 10.7952C16.1265 10.7952 15.2288 11.1217 14.5382 11.5674C15.957 12.6848 16.6853 14.5808 16.0135 15.5413H20.7157ZM6.08817 15.535H13.9167C14.9526 15.535 15.3104 15.2211 15.3104 14.6436C15.3104 13.0301 13.2575 10.8078 10.0056 10.8078C6.74735 10.8078 4.70075 13.0301 4.70075 14.6436C4.70075 15.2211 5.05859 15.535 6.08817 15.535Z" fill="#0D1126" fill-opacity="0.4"/>
</g>
<defs>
<clipPath id="clip0_4324_19435">
<rect width="20" height="20" fill="white"/>
</clipPath>
</defs>
</svg>
