<svg width="24" height="24" viewBox="0 0 24 24" fill="none" xmlns="http://www.w3.org/2000/svg">
<path d="M9.12137 11.6359C10.7637 11.6359 12.1574 10.1744 12.1574 8.28348C12.1574 6.43778 10.7561 5.02148 9.12137 5.02148C7.47907 5.02148 6.07031 6.46038 6.07785 8.29855C6.07785 10.1744 7.47154 11.6359 9.12137 11.6359ZM16.9863 12.118C17.2575 12.118 17.4911 11.9824 17.6568 11.7414L21.0544 6.45285C21.1523 6.29464 21.2427 6.11384 21.2427 5.94057C21.2427 5.5639 20.9037 5.30776 20.5497 5.30776C20.3237 5.30776 20.1127 5.44336 19.9545 5.69196L16.9562 10.4833L15.5625 8.71289C15.3817 8.47182 15.2009 8.39648 14.9749 8.39648C14.6057 8.39648 14.3119 8.69782 14.3119 9.06696C14.3119 9.24777 14.3797 9.42104 14.5078 9.57924L16.2857 11.7414C16.4891 11.9975 16.7076 12.118 16.9863 12.118ZM4.42048 18.642H13.8072C15.0502 18.642 15.4796 18.2653 15.4796 17.5723C15.4796 15.6362 13.0237 12.9693 9.11384 12.9693C5.2115 12.9693 2.74805 15.6362 2.74805 17.5723C2.74805 18.2653 3.17746 18.642 4.42048 18.642Z" fill="#0D1126" fill-opacity="0.4"/>
</svg>
