<svg width="20" height="20" viewBox="0 0 20 20" fill="none" xmlns="http://www.w3.org/2000/svg">
<path d="M5.45396 10.4688H9.28348V14.2983C9.28348 14.6875 9.60365 15.014 9.99916 15.014C10.3947 15.014 10.7148 14.6875 10.7148 14.2983V10.4688H14.5444C14.9336 10.4688 15.26 10.1486 15.26 9.75307C15.26 9.35756 14.9336 9.03739 14.5444 9.03739H10.7148V5.20787C10.7148 4.81864 10.3947 4.49219 9.99916 4.49219C9.60365 4.49219 9.28348 4.81864 9.28348 5.20787V9.03739H5.45396C5.06473 9.03739 4.73828 9.35756 4.73828 9.75307C4.73828 10.1486 5.06473 10.4688 5.45396 10.4688Z" fill="white" fill-opacity="0.9"/>
</svg>
