<svg width="20" height="20" viewBox="0 0 20 20" fill="none" xmlns="http://www.w3.org/2000/svg">
<path d="M7.02999 16.0564H12.9752C13.8352 16.0564 14.3375 15.5981 14.3751 14.7443L14.7706 5.67271H15.637C15.9572 5.67271 16.202 5.4216 16.202 5.1077C16.202 4.79381 15.9509 4.55525 15.637 4.55525H12.9124V3.61356C12.9124 2.6091 12.2658 2.0127 11.186 2.0127H8.80036C7.72056 2.0127 7.07394 2.6091 7.07394 3.61356V4.55525H4.36189C4.04799 4.55525 3.79688 4.80008 3.79688 5.1077C3.79688 5.42787 4.04799 5.67271 4.36189 5.67271H5.23451L5.6363 14.7443C5.66769 15.5981 6.16992 16.0564 7.02999 16.0564ZM8.37974 3.67006C8.37974 3.38756 8.57436 3.2055 8.88825 3.2055H11.1044C11.4182 3.2055 11.6129 3.38756 11.6129 3.67006V4.55525H8.37974V3.67006ZM7.98424 14.129C7.73312 14.129 7.55734 13.9658 7.55106 13.7147L7.36272 7.04757C7.35645 6.79646 7.53223 6.62695 7.7959 6.62695C8.04701 6.62695 8.2228 6.79018 8.22907 7.04129L8.41741 13.7084C8.42997 13.9595 8.25419 14.129 7.98424 14.129ZM9.99944 14.129C9.73577 14.129 9.55999 13.9658 9.55999 13.7147V7.04129C9.55999 6.79646 9.73577 6.62695 9.99944 6.62695C10.2631 6.62695 10.4452 6.79646 10.4452 7.04129V13.7147C10.4452 13.9658 10.2631 14.129 9.99944 14.129ZM12.0146 14.1353C11.7447 14.1353 11.5689 13.9595 11.5815 13.7147L11.7698 7.04129C11.7761 6.79018 11.9519 6.62695 12.203 6.62695C12.4667 6.62695 12.6424 6.79646 12.6362 7.04757L12.4478 13.7147C12.4415 13.9658 12.2658 14.1353 12.0146 14.1353Z" fill="#0D1126" fill-opacity="0.4"/>
</svg>
